<?xml version="1.0" standalone="no"?>
<!DOCTYPE svg PUBLIC "-//W3C//DTD SVG 20010904//EN"
 "http://www.w3.org/TR/2001/REC-SVG-20010904/DTD/svg10.dtd">
<svg version="1.0" xmlns="http://www.w3.org/2000/svg"
 width="561.000000pt" height="257.000000pt" viewBox="0 0 561.000000 257.000000"
 preserveAspectRatio="xMidYMid meet">

<g transform="translate(0.000000,257.000000) scale(0.100000,-0.100000)"
fill="#000000" stroke="none">
<path d="M560 2413 c-107 -17 -250 -100 -318 -185 -46 -57 -99 -170 -112 -237
-60 -320 188 -621 513 -621 169 0 327 81 421 215 57 80 85 150 98 243 48 337
-263 639 -602 585z m166 -44 c167 -30 313 -153 370 -312 127 -350 -185 -712
-548 -636 -259 54 -429 311 -374 567 40 189 185 337 369 377 78 17 109 18 183
4z"/>
<path d="M537 2319 c-125 -29 -259 -149 -303 -271 -59 -165 -21 -347 99 -467
175 -176 458 -174 627 5 28 30 65 84 83 121 30 64 32 74 32 183 0 108 -2 119
-32 182 -55 117 -151 201 -271 238 -68 21 -168 25 -235 9z m273 -70 c84 -39
159 -113 198 -196 23 -51 26 -71 26 -163 1 -94 -2 -111 -26 -162 -31 -67 -103
-147 -163 -183 -53 -31 -144 -55 -206 -55 -108 0 -254 73 -312 157 -59 85 -72
130 -72 243 0 98 2 110 32 170 99 201 322 282 523 189z"/>
<path d="M553 2238 c-61 -13 -161 -84 -200 -142 -99 -145 -79 -342 47 -460 79
-74 126 -91 245 -91 84 0 107 4 147 24 75 37 134 95 170 169 30 61 33 75 33
157 -1 77 -5 98 -28 145 -77 159 -241 237 -414 198z m223 -62 c197 -91 243
-366 84 -510 -72 -65 -114 -81 -215 -81 -75 0 -97 4 -135 24 -176 91 -231 296
-125 458 84 128 249 174 391 109z"/>
<path d="M560 2155 c-94 -30 -172 -127 -186 -232 -13 -104 51 -224 150 -276
54 -28 184 -31 233 -4 168 91 209 292 88 435 -62 73 -190 108 -285 77z m190
-55 c77 -39 120 -115 120 -210 0 -138 -116 -243 -252 -227 -80 10 -148 60
-184 136 -25 52 -23 145 4 197 27 52 92 109 140 123 48 13 126 5 172 -19z"/>
<path d="M773 1863 c-18 -7 -16 -23 8 -62 18 -31 22 -32 36 -18 14 14 14 19
-6 51 -13 20 -23 36 -24 35 -1 0 -8 -3 -14 -6z"/>
<path d="M694 1805 c-7 -18 33 -85 51 -85 26 0 26 19 -1 60 -28 43 -41 49 -50
25z"/>
<path d="M622 1767 c-15 -17 23 -77 49 -77 25 0 24 13 -3 55 -25 38 -31 41
-46 22z"/>
<path d="M3116 2404 c-123 -30 -247 -118 -318 -228 -128 -198 -102 -475 60
-641 99 -101 210 -153 344 -162 157 -11 287 37 403 149 63 62 68 69 54 84 -15
14 -21 10 -73 -44 -187 -196 -492 -201 -685 -11 -102 100 -145 216 -139 369 3
91 7 104 46 183 150 302 533 367 771 130 57 -57 66 -63 79 -49 14 13 8 22 -49
78 -137 134 -315 185 -493 142z"/>
<path d="M1250 2065 c0 -283 2 -310 21 -367 66 -198 250 -328 464 -328 254 0
456 175 485 420 6 47 9 195 8 330 l-3 245 -22 3 -23 3 0 -304 c0 -272 -2 -310
-19 -359 -50 -144 -162 -243 -324 -284 -206 -53 -439 65 -518 263 -23 56 -24
69 -27 371 -3 301 -4 312 -23 312 -18 0 -19 -9 -19 -305z"/>
<path d="M1330 2083 c0 -357 9 -398 103 -501 200 -217 559 -157 683 113 16 36
19 76 22 358 3 311 3 317 -17 317 -19 0 -20 -8 -23 -312 l-3 -313 -27 -51
c-36 -69 -69 -106 -126 -142 -152 -97 -350 -75 -470 52 -95 100 -102 134 -102
491 0 268 0 275 -20 275 -20 0 -20 -7 -20 -287z"/>
<path d="M1420 2067 l0 -303 26 -52 c33 -66 100 -125 173 -153 45 -17 71 -20
136 -17 97 5 161 34 222 101 77 83 77 84 81 425 3 296 3 302 -17 302 -19 0
-20 -8 -23 -297 l-3 -298 -31 -55 c-88 -154 -302 -188 -438 -69 -84 74 -86 83
-86 422 0 290 0 297 -20 297 -20 0 -20 -7 -20 -303z"/>
<path d="M1500 2080 c0 -222 3 -298 14 -323 18 -44 96 -113 142 -126 119 -33
245 14 294 109 19 37 20 59 20 335 0 288 0 295 -20 295 -20 0 -20 -7 -20 -287
0 -326 -2 -334 -76 -386 -30 -21 -57 -30 -100 -34 -81 -7 -156 31 -191 96 -22
43 -23 50 -23 328 0 276 0 283 -20 283 -20 0 -20 -7 -20 -290z"/>
<path d="M2340 1890 c0 -473 0 -480 20 -480 20 0 20 7 20 480 0 473 0 480 -20
480 -20 0 -20 -7 -20 -480z"/>
<path d="M2420 1890 c0 -473 0 -480 20 -480 20 0 20 7 20 480 0 473 0 480 -20
480 -20 0 -20 -7 -20 -480z"/>
<path d="M2500 1890 c0 -473 0 -480 20 -480 20 0 20 7 20 480 0 473 0 480 -20
480 -20 0 -20 -7 -20 -480z"/>
<path d="M2590 1890 c0 -473 0 -480 20 -480 20 0 20 7 20 480 0 473 0 480 -20
480 -20 0 -20 -7 -20 -480z"/>
<path d="M3750 1890 c0 -473 0 -480 20 -480 20 0 20 7 20 480 0 473 0 480 -20
480 -20 0 -20 -7 -20 -480z"/>
<path d="M3830 1890 c0 -473 0 -480 20 -480 20 0 20 7 20 480 0 473 0 480 -20
480 -20 0 -20 -7 -20 -480z"/>
<path d="M3920 1890 c0 -473 0 -480 20 -480 20 0 20 7 20 480 0 473 0 480 -20
480 -20 0 -20 -7 -20 -480z"/>
<path d="M4000 1890 c0 -473 0 -480 20 -480 20 0 20 7 20 480 0 473 0 480 -20
480 -20 0 -20 -7 -20 -480z"/>
<path d="M4190 2133 c-66 -131 -119 -242 -118 -248 2 -5 56 -115 121 -242 105
-208 121 -233 143 -233 23 0 17 13 -99 240 l-122 240 122 240 c113 224 120
240 98 240 -21 0 -38 -29 -145 -237z"/>
<path d="M4283 2130 l-122 -239 122 -240 c106 -210 125 -241 145 -241 13 0 22
3 20 8 -1 4 -56 112 -121 239 l-117 233 120 240 c110 220 118 240 98 240 -20
0 -41 -35 -145 -240z"/>
<path d="M4396 2168 c-57 -112 -113 -220 -123 -241 l-18 -39 122 -236 c93
-181 127 -238 142 -240 12 -2 21 0 21 5 -1 4 -54 113 -119 242 l-119 234 119
232 c65 127 119 235 119 238 0 4 -9 7 -19 7 -16 0 -43 -45 -125 -202z"/>
<path d="M4471 2130 l-122 -240 123 -240 c107 -210 126 -240 146 -240 22 0 15
17 -100 240 l-123 241 123 239 c116 225 122 240 99 240 -21 0 -38 -28 -146
-240z"/>
<path d="M3120 2315 c-295 -83 -417 -446 -232 -690 82 -108 192 -165 332 -172
132 -8 241 36 336 134 48 49 52 58 28 67 -10 4 -32 -11 -64 -43 -27 -27 -80
-64 -117 -83 -62 -30 -75 -33 -163 -33 -86 0 -101 3 -162 32 -93 44 -151 100
-196 191 -35 72 -37 81 -37 171 0 87 3 102 32 163 56 120 154 198 282 228 123
29 270 -16 363 -112 31 -32 52 -46 62 -42 9 3 16 10 16 15 0 22 -107 111 -174
145 -66 32 -86 37 -163 40 -59 3 -106 -1 -143 -11z"/>
<path d="M3143 2236 c-189 -62 -300 -254 -248 -432 31 -108 90 -180 195 -235
39 -20 59 -24 145 -24 90 0 106 3 159 29 55 27 136 95 136 115 0 5 -7 11 -15
15 -10 3 -30 -9 -53 -32 -56 -56 -122 -84 -206 -90 -133 -8 -238 54 -298 175
-28 57 -32 77 -32 137 1 123 69 228 183 283 47 23 68 28 131 27 91 -1 148 -23
214 -84 42 -39 76 -48 76 -22 0 19 -93 95 -146 119 -67 30 -179 39 -241 19z"/>
<path d="M3159 2156 c-61 -21 -108 -56 -138 -99 -38 -58 -51 -99 -51 -172 0
-148 121 -265 275 -265 61 0 162 46 195 87 19 24 19 28 5 42 -14 14 -17 13
-30 -7 -9 -12 -35 -33 -59 -47 -202 -118 -426 98 -318 306 70 135 249 167 355
64 22 -22 42 -33 51 -29 24 9 20 18 -28 62 -69 64 -175 88 -257 58z"/>
<path d="M1002 1471 c-10 -6 -7 -18 15 -54 27 -46 45 -57 58 -37 7 11 -41 100
-53 100 -4 0 -13 -4 -20 -9z"/>
<path d="M926 1421 c-3 -4 8 -30 25 -56 27 -43 32 -46 46 -33 13 14 12 20 -11
57 -25 39 -48 52 -60 32z"/>
<path d="M863 1393 c-7 -3 -13 -9 -13 -13 0 -18 55 -100 67 -100 24 0 24 22
-1 65 -29 49 -35 54 -53 48z"/>
<path d="M2251 1204 c-169 -45 -261 -161 -261 -329 0 -103 28 -175 94 -241 66
-66 138 -94 242 -94 87 0 114 -11 114 -45 0 -14 -8 -29 -19 -35 -24 -12 -135
-13 -178 -1 -22 7 -37 5 -49 -4 -16 -11 -16 -13 7 -26 16 -10 58 -14 130 -14
91 0 110 3 128 19 30 28 29 89 -4 121 -21 22 -33 25 -103 25 -113 0 -175 22
-237 85 -142 141 -100 389 79 474 131 61 356 40 481 -44 60 -42 98 -26 45 18
-102 86 -326 130 -469 91z"/>
<path d="M3226 1204 c-170 -41 -314 -169 -377 -334 -130 -342 129 -719 493
-720 93 0 161 16 248 58 278 135 379 499 211 759 -126 195 -356 290 -575 237z
m264 -50 c242 -68 397 -334 339 -584 -55 -241 -310 -413 -551 -372 -87 15
-196 65 -257 118 -99 86 -161 226 -161 363 1 94 13 149 49 222 39 77 76 123
144 174 126 96 278 123 437 79z"/>
<path d="M3230 1116 c-72 -20 -130 -54 -190 -112 -168 -160 -186 -413 -43
-601 43 -56 137 -120 210 -143 209 -65 435 23 535 207 100 183 66 397 -85 540
-60 57 -106 83 -186 107 -64 19 -177 20 -241 2z m216 -40 c76 -20 148 -63 200
-118 251 -269 42 -701 -326 -675 -344 23 -500 432 -261 680 100 105 252 149
387 113z"/>
<path d="M3255 1037 c-109 -37 -186 -101 -232 -195 -25 -51 -28 -67 -28 -162
0 -96 3 -110 28 -158 38 -72 100 -132 173 -168 53 -26 69 -29 154 -29 84 0
102 3 152 28 76 37 143 104 176 175 24 50 27 69 27 157 0 89 -3 106 -28 156
-34 69 -109 142 -182 175 -67 31 -180 41 -240 21z m231 -63 c58 -27 121 -91
156 -156 19 -36 23 -58 23 -133 0 -105 -20 -157 -87 -225 -61 -64 -136 -95
-229 -95 -67 0 -84 4 -145 35 -120 61 -181 169 -172 304 10 144 115 268 251
296 62 13 145 2 203 -26z"/>
<path d="M3243 939 c-36 -14 -67 -36 -98 -71 -162 -180 -38 -458 205 -458 164
0 296 146 276 303 -25 185 -208 293 -383 226z m213 -47 c82 -42 126 -116 126
-213 0 -127 -104 -229 -234 -229 -70 1 -125 27 -175 84 -88 100 -76 242 26
327 21 18 54 39 72 46 46 17 137 10 185 -15z"/>
<path d="M3980 686 c0 -489 0 -496 20 -496 20 0 20 7 20 476 l0 475 303 -3
302 -3 56 -26 c69 -33 127 -89 160 -155 36 -73 34 -188 -4 -266 -32 -65 -90
-121 -156 -151 -39 -18 -70 -22 -213 -25 -157 -4 -168 -5 -168 -23 0 -17 8
-19 78 -19 l78 0 45 -137 c39 -123 47 -138 68 -141 17 -3 22 0 18 10 -24 63
-79 259 -74 264 18 18 36 -16 77 -140 35 -107 48 -136 62 -136 25 0 23 10 -22
145 -22 65 -40 123 -40 127 0 4 8 8 18 8 13 0 28 -32 66 -140 39 -113 52 -140
67 -140 11 0 19 5 19 11 0 7 -20 70 -45 141 -25 71 -45 134 -45 139 0 5 8 9
18 9 13 0 26 -23 51 -97 68 -196 71 -203 92 -203 10 0 19 4 19 9 0 4 -22 74
-50 155 -27 81 -50 152 -50 159 0 7 16 23 35 36 45 30 92 102 112 170 15 54
15 184 -2 224 -6 15 1 17 79 17 l86 0 0 -385 c0 -378 0 -385 20 -385 20 0 20
7 20 385 0 378 0 385 20 385 20 0 20 -7 20 -385 l0 -385 25 0 25 0 0 385 c0
378 0 385 20 385 20 0 20 -7 20 -385 0 -378 0 -385 20 -385 20 0 20 7 20 386
l0 385 23 -3 22 -3 3 -382 c2 -375 3 -383 22 -383 20 0 20 7 20 385 l0 385 85
0 c78 0 85 2 85 20 0 20 -7 20 -319 20 -288 0 -320 -2 -323 -16 -2 -11 -14 1
-36 34 -34 53 -100 107 -167 138 -36 17 -76 19 -372 22 l-333 3 0 -495z"/>
<path d="M4890 1150 c0 -20 7 -20 320 -20 313 0 320 0 320 20 0 20 -7 20 -320
20 -313 0 -320 0 -320 -20z"/>
<path d="M2250 1115 c-182 -56 -238 -293 -101 -426 55 -53 103 -69 211 -69 96
0 134 -18 156 -75 40 -106 -29 -185 -162 -185 -57 0 -138 16 -180 36 -33 16
-37 16 -52 1 -14 -15 -12 -18 30 -36 102 -46 255 -54 331 -17 81 39 110 141
67 231 -30 63 -62 77 -191 86 -137 9 -180 32 -223 116 -20 39 -21 141 -2 186
54 131 287 167 474 73 49 -24 72 -24 72 -1 0 18 -110 70 -178 84 -72 15 -197
13 -252 -4z"/>
<path d="M4060 640 c0 -443 0 -450 20 -450 20 0 20 7 20 430 l0 430 243 0
c141 0 258 -5 281 -11 45 -13 118 -76 140 -123 39 -81 10 -207 -60 -265 -52
-42 -96 -51 -258 -51 -139 0 -146 -1 -146 -20 0 -19 7 -20 163 -20 155 0 166
1 215 26 92 46 145 131 146 234 1 110 -56 198 -159 246 -49 23 -58 24 -327 24
l-278 0 0 -450z"/>
<path d="M4890 1070 c0 -20 7 -20 320 -20 313 0 320 0 320 20 0 20 -7 20 -320
20 -313 0 -320 0 -320 -20z"/>
<path d="M2291 1041 c-109 -28 -165 -153 -112 -251 32 -61 58 -72 180 -81 130
-10 178 -29 218 -90 29 -44 41 -120 29 -184 -11 -55 -77 -121 -139 -140 -98
-29 -240 -15 -339 33 -47 23 -59 26 -73 15 -16 -11 -14 -14 16 -33 86 -52 137
-64 274 -65 145 0 179 11 241 77 52 55 68 95 68 173 0 165 -104 255 -293 255
-95 0 -134 20 -152 79 -35 117 57 192 215 175 33 -4 85 -16 114 -26 53 -20 83
-15 68 10 -23 38 -234 73 -315 53z"/>
<path d="M4150 601 c0 -404 0 -411 20 -411 20 0 20 7 20 391 l0 390 204 -3
c228 -3 234 -5 284 -79 44 -63 15 -154 -59 -191 -28 -15 -61 -18 -176 -18
-136 0 -143 -1 -143 -20 0 -19 7 -20 153 -20 172 0 197 7 252 74 27 34 30 45
30 105 0 77 -22 120 -83 162 -35 23 -41 24 -269 27 l-233 3 0 -410z"/>
<path d="M2295 949 c-33 -19 -45 -41 -45 -79 0 -65 15 -74 134 -81 90 -5 114
-10 163 -35 103 -53 161 -163 150 -290 -9 -114 -75 -202 -187 -246 -44 -18
-76 -22 -160 -22 -121 0 -213 23 -294 74 -47 30 -82 34 -74 7 7 -20 109 -76
183 -100 101 -32 285 -31 368 2 81 32 157 108 186 186 32 84 27 205 -13 287
-55 115 -147 169 -296 176 -52 2 -101 9 -107 14 -23 18 -15 58 13 68 32 12
116 12 169 0 31 -7 43 -6 54 5 13 12 10 16 -15 26 -41 17 -204 22 -229 8z"/>
<path d="M4232 558 c3 -355 3 -363 23 -363 20 0 20 8 23 343 l2 342 146 0 c81
0 154 -5 165 -10 22 -12 27 -68 7 -88 -8 -8 -57 -12 -155 -12 -136 0 -143 -1
-143 -20 0 -19 7 -20 153 -20 146 0 154 1 174 23 43 46 33 126 -18 152 -21 12
-69 15 -204 15 l-175 0 2 -362z"/>
</g>
</svg>
